<svg xmlns="http://www.w3.org/2000/svg" viewBox="0 0 220 430" role="img" aria-labelledby="title desc">
  <title id="title">Ks 2 with shortened braking distance marker</title>
  <desc id="desc">A Ks signal showing a steady yellow aspect with a steady white supplementary light above the signal head and a Ne 2 board below.</desc>
  <circle cx="110" cy="34" r="14" fill="#f7f7ef" stroke="#111" stroke-width="5"/>
  <rect x="62" y="58" width="96" height="176" rx="18" fill="#202124" stroke="#111" stroke-width="6"/>
  <circle cx="110" cy="112" r="25" fill="#151515" stroke="#090909" stroke-width="5"/>
  <circle cx="110" cy="112" r="18" fill="#343434"/>
  <circle cx="110" cy="180" r="25" fill="#151515" stroke="#090909" stroke-width="5"/>
  <circle cx="110" cy="180" r="18" fill="#ffd83d"/>
  <g transform="translate(70 250) scale(.5)">
    <rect x="8" y="8" width="144" height="104" fill="#f4f4f2" stroke="#151515" stroke-width="8"/>
    <g fill="#151515">
      <rect x="12" y="12" width="34" height="24"/><rect x="80" y="12" width="34" height="24"/>
      <rect x="46" y="36" width="34" height="24"/><rect x="114" y="36" width="34" height="24"/>
      <rect x="12" y="60" width="34" height="24"/><rect x="80" y="60" width="34" height="24"/>
      <rect x="46" y="84" width="34" height="24"/><rect x="114" y="84" width="34" height="24"/>
    </g>
  </g>
  <rect x="102" y="310" width="16" height="106" rx="4" fill="#777"/>
</svg>
