<svg xmlns="http://www.w3.org/2000/svg" viewBox="0 0 340 1620">
  <style>.head{fill:#202124;stroke:#111;stroke-width:5}.hood{fill:#111}.off{fill:#343434}.green{fill:#29d657}.yellow{fill:#ffd83d}.red{fill:#ef3b3b}.strip-green{fill:#29d657}.strip-yellow{fill:#ffd83d}.label{font:700 18px sans-serif;fill:#111}.flash{animation:hl-flash 1s steps(1,end) infinite}@keyframes hl-flash{0%,49%{opacity:1}50%,100%{opacity:.12}}</style>
  <defs>
    <g id="base"><rect class="head" x="45" y="8" width="110" height="118" rx="10"/><circle class="hood" cx="78" cy="42" r="23"/><circle class="off" cx="78" cy="42" r="16"/><circle class="hood" cx="122" cy="42" r="23"/><circle class="off" cx="122" cy="42" r="16"/><circle class="hood" cx="78" cy="91" r="23"/><circle class="off" cx="78" cy="91" r="16"/><rect x="112" y="77" width="21" height="29" rx="3" class="off"/></g>
    <g id="hl1"><use href="#base"/><circle class="green" cx="78" cy="42" r="16"/></g><g id="hl2"><use href="#hl1"/><circle class="yellow" cx="78" cy="91" r="16"/><rect class="strip-green" x="112" y="77" width="21" height="29" rx="3"/></g><g id="hl3a"><use href="#hl1"/><circle class="yellow" cx="78" cy="91" r="16"/></g><g id="hl3b"><use href="#hl3a"/><rect class="strip-yellow" x="112" y="77" width="21" height="29" rx="3"/></g><g id="hl4"><use href="#base"/><circle class="green flash" cx="78" cy="42" r="16"/></g><g id="hl5"><use href="#hl4"/><circle class="yellow" cx="78" cy="91" r="16"/><rect class="strip-green" x="112" y="77" width="21" height="29" rx="3"/></g><g id="hl6a"><use href="#hl4"/><circle class="yellow" cx="78" cy="91" r="16"/></g><g id="hl6b"><use href="#hl6a"/><rect class="strip-yellow" x="112" y="77" width="21" height="29" rx="3"/></g><g id="hl7"><use href="#base"/><circle class="yellow flash" cx="122" cy="42" r="16"/></g><g id="hl8"><use href="#hl7"/><circle class="yellow" cx="78" cy="91" r="16"/><rect class="strip-green" x="112" y="77" width="21" height="29" rx="3"/></g><g id="hl9a"><use href="#hl7"/><circle class="yellow" cx="78" cy="91" r="16"/></g><g id="hl9b"><use href="#hl9a"/><rect class="strip-yellow" x="112" y="77" width="21" height="29" rx="3"/></g><g id="hl10"><use href="#base"/><circle class="yellow" cx="122" cy="42" r="16"/></g><g id="hl11"><use href="#hl10"/><circle class="yellow" cx="78" cy="91" r="16"/><rect class="strip-green" x="112" y="77" width="21" height="29" rx="3"/></g><g id="hl12a"><use href="#hl10"/><circle class="yellow" cx="78" cy="91" r="16"/></g><g id="hl12b"><use href="#hl12a"/><rect class="strip-yellow" x="112" y="77" width="21" height="29" rx="3"/></g><g id="hp0"><use href="#base"/><circle class="red" cx="78" cy="42" r="16"/></g>
  </defs>
  <g transform="translate(0 0)"><use href="#hl1"/><text class="label" x="185" y="70">Hl 1</text></g><g transform="translate(0 95)"><use href="#hl2"/><text class="label" x="185" y="70">Hl 2</text></g><g transform="translate(0 190)"><use href="#hl3a"/><text class="label" x="185" y="70">Hl 3a</text></g><g transform="translate(0 285)"><use href="#hl3b"/><text class="label" x="185" y="70">Hl 3b</text></g><g transform="translate(0 380)"><use href="#hl4"/><text class="label" x="185" y="70">Hl 4</text></g><g transform="translate(0 475)"><use href="#hl5"/><text class="label" x="185" y="70">Hl 5</text></g><g transform="translate(0 570)"><use href="#hl6a"/><text class="label" x="185" y="70">Hl 6a</text></g><g transform="translate(0 665)"><use href="#hl6b"/><text class="label" x="185" y="70">Hl 6b</text></g><g transform="translate(0 760)"><use href="#hl7"/><text class="label" x="185" y="70">Hl 7</text></g><g transform="translate(0 855)"><use href="#hl8"/><text class="label" x="185" y="70">Hl 8</text></g><g transform="translate(0 950)"><use href="#hl9a"/><text class="label" x="185" y="70">Hl 9a</text></g><g transform="translate(0 1045)"><use href="#hl9b"/><text class="label" x="185" y="70">Hl 9b</text></g><g transform="translate(0 1140)"><use href="#hl10"/><text class="label" x="185" y="70">Hl 10</text></g><g transform="translate(0 1235)"><use href="#hl11"/><text class="label" x="185" y="70">Hl 11</text></g><g transform="translate(0 1330)"><use href="#hl12a"/><text class="label" x="185" y="70">Hl 12a</text></g><g transform="translate(0 1425)"><use href="#hl12b"/><text class="label" x="185" y="70">Hl 12b</text></g><g transform="translate(0 1520)"><use href="#hp0"/><text class="label" x="185" y="70">Hp 0</text></g>
</svg>